<mxfile host="app.diagrams.net" modified="2021-09-26T01:58:43.850Z" agent="5.0 (Windows NT 10.0; Win64; x64) AppleWebKit/537.36 (KHTML, like Gecko) Chrome/93.0.4577.82 Safari/537.36" etag="x290MQ9dMcB3eQduWsYX" version="15.3.0" type="github" pages="2">
  <diagram id="iOW31k_ucXHyZiCGallR" name="Page-2">
    <mxGraphModel dx="4512" dy="1089" grid="1" gridSize="10" guides="1" tooltips="1" connect="1" arrows="1" fold="1" page="1" pageScale="1" pageWidth="827" pageHeight="1169" math="0" shadow="0">
      <root>
        <mxCell id="AWELvCN4uoLw8x4LyFVA-0" />
        <mxCell id="AWELvCN4uoLw8x4LyFVA-1" parent="AWELvCN4uoLw8x4LyFVA-0" />
        <mxCell id="UjjVa_3xwsOkNaraYyiL-0" style="edgeStyle=none;html=1;labelBackgroundColor=none;endArrow=none;strokeWidth=2;fontFamily=Verdana;fontSize=28;fontColor=#0066CC;rounded=0;strokeColor=#6881B3;shadow=0;" parent="AWELvCN4uoLw8x4LyFVA-1" target="UjjVa_3xwsOkNaraYyiL-3" edge="1">
          <mxGeometry relative="1" as="geometry">
            <mxPoint x="-1533" y="774" as="sourcePoint" />
          </mxGeometry>
        </mxCell>
        <mxCell id="UjjVa_3xwsOkNaraYyiL-1" style="edgeStyle=none;html=1;labelBackgroundColor=none;endArrow=none;strokeWidth=2;fontFamily=Verdana;fontSize=28;fontColor=#0066CC;rounded=0;strokeColor=#6881B3;shadow=0;" parent="AWELvCN4uoLw8x4LyFVA-1" target="UjjVa_3xwsOkNaraYyiL-40" edge="1">
          <mxGeometry relative="1" as="geometry">
            <mxPoint x="-1533" y="874" as="sourcePoint" />
          </mxGeometry>
        </mxCell>
        <mxCell id="UjjVa_3xwsOkNaraYyiL-3" value="" style="html=1;fillColor=#CCCCCC;strokeColor=#6881B3;gradientColor=none;gradientDirection=north;strokeWidth=2;shape=mxgraph.networks.bus;gradientColor=none;gradientDirection=north;fontColor=#ffffff;perimeter=backbonePerimeter;backboneSize=20;rounded=1;shadow=0;comic=0;labelBackgroundColor=#ffffff;" parent="AWELvCN4uoLw8x4LyFVA-1" vertex="1">
          <mxGeometry x="-1923" y="599" width="780" height="20" as="geometry" />
        </mxCell>
        <mxCell id="UjjVa_3xwsOkNaraYyiL-4" value="" style="strokeColor=#6881B3;edgeStyle=none;rounded=0;endArrow=none;html=1;strokeWidth=2;labelBackgroundColor=none;fontFamily=Verdana;fontSize=28;fontColor=#0066CC;shadow=0;" parent="AWELvCN4uoLw8x4LyFVA-1" source="UjjVa_3xwsOkNaraYyiL-6" target="UjjVa_3xwsOkNaraYyiL-3" edge="1">
          <mxGeometry relative="1" as="geometry">
            <mxPoint x="-1243" y="539" as="sourcePoint" />
          </mxGeometry>
        </mxCell>
        <mxCell id="UjjVa_3xwsOkNaraYyiL-5" value="" style="strokeColor=#6881B3;edgeStyle=none;rounded=0;endArrow=none;html=1;strokeWidth=2;labelBackgroundColor=none;fontFamily=Verdana;fontSize=28;fontColor=#0066CC;shadow=0;" parent="AWELvCN4uoLw8x4LyFVA-1" source="UjjVa_3xwsOkNaraYyiL-23" target="UjjVa_3xwsOkNaraYyiL-3" edge="1">
          <mxGeometry relative="1" as="geometry">
            <mxPoint x="-1713" y="429" as="sourcePoint" />
          </mxGeometry>
        </mxCell>
        <mxCell id="UjjVa_3xwsOkNaraYyiL-6" value="server" style="fontColor=#0066CC;verticalAlign=top;verticalLabelPosition=bottom;labelPosition=center;align=center;html=1;fillColor=#CCCCCC;strokeColor=#6881B3;gradientColor=none;gradientDirection=north;strokeWidth=2;shape=mxgraph.networks.server;rounded=1;shadow=0;comic=0;labelBackgroundColor=#ffffff;" parent="AWELvCN4uoLw8x4LyFVA-1" vertex="1">
          <mxGeometry x="-1293" y="374" width="90" height="100" as="geometry" />
        </mxCell>
        <mxCell id="UjjVa_3xwsOkNaraYyiL-7" style="edgeStyle=none;html=1;labelBackgroundColor=none;endArrow=none;strokeWidth=2;fontFamily=Verdana;fontSize=28;fontColor=#0066CC;rounded=0;strokeColor=#6881B3;shadow=0;" parent="AWELvCN4uoLw8x4LyFVA-1" source="UjjVa_3xwsOkNaraYyiL-14" target="UjjVa_3xwsOkNaraYyiL-15" edge="1">
          <mxGeometry relative="1" as="geometry" />
        </mxCell>
        <mxCell id="UjjVa_3xwsOkNaraYyiL-9" style="edgeStyle=none;html=1;labelBackgroundColor=none;endArrow=none;strokeWidth=2;fontFamily=Verdana;fontSize=28;fontColor=#0066CC;rounded=0;strokeColor=#6881B3;shadow=0;" parent="AWELvCN4uoLw8x4LyFVA-1" source="UjjVa_3xwsOkNaraYyiL-14" target="UjjVa_3xwsOkNaraYyiL-17" edge="1">
          <mxGeometry relative="1" as="geometry" />
        </mxCell>
        <mxCell id="UjjVa_3xwsOkNaraYyiL-10" style="edgeStyle=none;html=1;labelBackgroundColor=none;endArrow=none;strokeWidth=2;fontFamily=Verdana;fontSize=28;fontColor=#0066CC;rounded=0;strokeColor=#6881B3;shadow=0;" parent="AWELvCN4uoLw8x4LyFVA-1" source="UjjVa_3xwsOkNaraYyiL-14" target="UjjVa_3xwsOkNaraYyiL-20" edge="1">
          <mxGeometry relative="1" as="geometry" />
        </mxCell>
        <mxCell id="UjjVa_3xwsOkNaraYyiL-12" style="edgeStyle=none;html=1;labelBackgroundColor=none;endArrow=none;strokeWidth=2;fontFamily=Verdana;fontSize=28;fontColor=#0066CC;rounded=0;strokeColor=#6881B3;shadow=0;" parent="AWELvCN4uoLw8x4LyFVA-1" source="UjjVa_3xwsOkNaraYyiL-14" target="UjjVa_3xwsOkNaraYyiL-18" edge="1">
          <mxGeometry relative="1" as="geometry" />
        </mxCell>
        <mxCell id="UjjVa_3xwsOkNaraYyiL-13" style="edgeStyle=none;html=1;labelBackgroundColor=none;endArrow=none;strokeWidth=2;fontFamily=Verdana;fontSize=28;fontColor=#0066CC;rounded=0;strokeColor=#6881B3;shadow=0;" parent="AWELvCN4uoLw8x4LyFVA-1" source="UjjVa_3xwsOkNaraYyiL-14" target="UjjVa_3xwsOkNaraYyiL-6" edge="1">
          <mxGeometry relative="1" as="geometry" />
        </mxCell>
        <mxCell id="UjjVa_3xwsOkNaraYyiL-14" value="switch" style="fontColor=#0066CC;verticalAlign=top;verticalLabelPosition=bottom;labelPosition=center;align=center;html=1;fillColor=#CCCCCC;strokeColor=#6881B3;gradientColor=none;gradientDirection=north;strokeWidth=2;shape=mxgraph.networks.switch;rounded=1;shadow=0;comic=0;labelBackgroundColor=#ffffff;" parent="AWELvCN4uoLw8x4LyFVA-1" vertex="1">
          <mxGeometry x="-1299" y="199" width="100" height="30" as="geometry" />
        </mxCell>
        <mxCell id="UjjVa_3xwsOkNaraYyiL-15" value="workstation" style="fontColor=#0066CC;verticalAlign=top;verticalLabelPosition=bottom;labelPosition=center;align=center;html=1;fillColor=#CCCCCC;strokeColor=#6881B3;gradientColor=none;gradientDirection=north;strokeWidth=2;shape=mxgraph.networks.pc;rounded=1;shadow=0;comic=0;labelBackgroundColor=#ffffff;" parent="AWELvCN4uoLw8x4LyFVA-1" vertex="1">
          <mxGeometry x="-1509" y="59" width="100" height="70" as="geometry" />
        </mxCell>
        <mxCell id="UjjVa_3xwsOkNaraYyiL-17" value="workstation" style="fontColor=#0066CC;verticalAlign=top;verticalLabelPosition=bottom;labelPosition=center;align=center;html=1;fillColor=#CCCCCC;strokeColor=#6881B3;gradientColor=none;gradientDirection=north;strokeWidth=2;shape=mxgraph.networks.pc;rounded=1;shadow=0;comic=0;labelBackgroundColor=#ffffff;" parent="AWELvCN4uoLw8x4LyFVA-1" vertex="1">
          <mxGeometry x="-1129" y="59" width="100" height="70" as="geometry" />
        </mxCell>
        <mxCell id="UjjVa_3xwsOkNaraYyiL-18" value="workstation" style="fontColor=#0066CC;verticalAlign=top;verticalLabelPosition=bottom;labelPosition=center;align=center;html=1;fillColor=#CCCCCC;strokeColor=#6881B3;gradientColor=none;gradientDirection=north;strokeWidth=2;shape=mxgraph.networks.pc;rounded=1;shadow=0;comic=0;labelBackgroundColor=#ffffff;" parent="AWELvCN4uoLw8x4LyFVA-1" vertex="1">
          <mxGeometry x="-1509" y="289" width="100" height="70" as="geometry" />
        </mxCell>
        <mxCell id="UjjVa_3xwsOkNaraYyiL-20" value="workstation" style="fontColor=#0066CC;verticalAlign=top;verticalLabelPosition=bottom;labelPosition=center;align=center;html=1;fillColor=#CCCCCC;strokeColor=#6881B3;gradientColor=none;gradientDirection=north;strokeWidth=2;shape=mxgraph.networks.pc;rounded=1;shadow=0;comic=0;labelBackgroundColor=#ffffff;" parent="AWELvCN4uoLw8x4LyFVA-1" vertex="1">
          <mxGeometry x="-1129" y="269" width="100" height="70" as="geometry" />
        </mxCell>
        <mxCell id="UjjVa_3xwsOkNaraYyiL-23" value="server" style="fontColor=#0066CC;verticalAlign=top;verticalLabelPosition=bottom;labelPosition=center;align=center;html=1;fillColor=#CCCCCC;strokeColor=#6881B3;gradientColor=none;gradientDirection=north;strokeWidth=2;shape=mxgraph.networks.server;rounded=1;shadow=0;comic=0;labelBackgroundColor=#ffffff;" parent="AWELvCN4uoLw8x4LyFVA-1" vertex="1">
          <mxGeometry x="-1847" y="374" width="90" height="100" as="geometry" />
        </mxCell>
        <mxCell id="UjjVa_3xwsOkNaraYyiL-24" style="edgeStyle=none;html=1;labelBackgroundColor=none;endArrow=none;strokeWidth=2;fontFamily=Verdana;fontSize=28;fontColor=#0066CC;rounded=0;strokeColor=#6881B3;shadow=0;" parent="AWELvCN4uoLw8x4LyFVA-1" source="UjjVa_3xwsOkNaraYyiL-31" target="UjjVa_3xwsOkNaraYyiL-32" edge="1">
          <mxGeometry relative="1" as="geometry" />
        </mxCell>
        <mxCell id="UjjVa_3xwsOkNaraYyiL-26" style="edgeStyle=none;html=1;labelBackgroundColor=none;endArrow=none;strokeWidth=2;fontFamily=Verdana;fontSize=28;fontColor=#0066CC;rounded=0;strokeColor=#6881B3;shadow=0;" parent="AWELvCN4uoLw8x4LyFVA-1" source="UjjVa_3xwsOkNaraYyiL-31" target="UjjVa_3xwsOkNaraYyiL-34" edge="1">
          <mxGeometry relative="1" as="geometry" />
        </mxCell>
        <mxCell id="UjjVa_3xwsOkNaraYyiL-27" style="edgeStyle=none;html=1;labelBackgroundColor=none;endArrow=none;strokeWidth=2;fontFamily=Verdana;fontSize=28;fontColor=#0066CC;rounded=0;strokeColor=#6881B3;shadow=0;" parent="AWELvCN4uoLw8x4LyFVA-1" source="UjjVa_3xwsOkNaraYyiL-31" target="UjjVa_3xwsOkNaraYyiL-37" edge="1">
          <mxGeometry relative="1" as="geometry" />
        </mxCell>
        <mxCell id="UjjVa_3xwsOkNaraYyiL-29" style="edgeStyle=none;html=1;labelBackgroundColor=none;endArrow=none;strokeWidth=2;fontFamily=Verdana;fontSize=28;fontColor=#0066CC;rounded=0;strokeColor=#6881B3;shadow=0;" parent="AWELvCN4uoLw8x4LyFVA-1" source="UjjVa_3xwsOkNaraYyiL-31" target="UjjVa_3xwsOkNaraYyiL-35" edge="1">
          <mxGeometry relative="1" as="geometry" />
        </mxCell>
        <mxCell id="UjjVa_3xwsOkNaraYyiL-30" style="edgeStyle=none;html=1;labelBackgroundColor=none;endArrow=none;strokeWidth=2;fontFamily=Verdana;fontSize=28;fontColor=#0066CC;rounded=0;strokeColor=#6881B3;shadow=0;" parent="AWELvCN4uoLw8x4LyFVA-1" source="UjjVa_3xwsOkNaraYyiL-31" target="UjjVa_3xwsOkNaraYyiL-23" edge="1">
          <mxGeometry relative="1" as="geometry" />
        </mxCell>
        <mxCell id="UjjVa_3xwsOkNaraYyiL-31" value="switch" style="fontColor=#0066CC;verticalAlign=top;verticalLabelPosition=bottom;labelPosition=center;align=center;html=1;fillColor=#CCCCCC;strokeColor=#6881B3;gradientColor=none;gradientDirection=north;strokeWidth=2;shape=mxgraph.networks.switch;rounded=1;shadow=0;comic=0;labelBackgroundColor=#ffffff;" parent="AWELvCN4uoLw8x4LyFVA-1" vertex="1">
          <mxGeometry x="-1853" y="199" width="100" height="30" as="geometry" />
        </mxCell>
        <mxCell id="UjjVa_3xwsOkNaraYyiL-32" value="workstation" style="fontColor=#0066CC;verticalAlign=top;verticalLabelPosition=bottom;labelPosition=center;align=center;html=1;fillColor=#CCCCCC;strokeColor=#6881B3;gradientColor=none;gradientDirection=north;strokeWidth=2;shape=mxgraph.networks.pc;rounded=1;shadow=0;comic=0;labelBackgroundColor=#ffffff;" parent="AWELvCN4uoLw8x4LyFVA-1" vertex="1">
          <mxGeometry x="-2063" y="59" width="100" height="70" as="geometry" />
        </mxCell>
        <mxCell id="UjjVa_3xwsOkNaraYyiL-34" value="workstation" style="fontColor=#0066CC;verticalAlign=top;verticalLabelPosition=bottom;labelPosition=center;align=center;html=1;fillColor=#CCCCCC;strokeColor=#6881B3;gradientColor=none;gradientDirection=north;strokeWidth=2;shape=mxgraph.networks.pc;rounded=1;shadow=0;comic=0;labelBackgroundColor=#ffffff;" parent="AWELvCN4uoLw8x4LyFVA-1" vertex="1">
          <mxGeometry x="-1683" y="59" width="100" height="70" as="geometry" />
        </mxCell>
        <mxCell id="UjjVa_3xwsOkNaraYyiL-35" value="workstation" style="fontColor=#0066CC;verticalAlign=top;verticalLabelPosition=bottom;labelPosition=center;align=center;html=1;fillColor=#CCCCCC;strokeColor=#6881B3;gradientColor=none;gradientDirection=north;strokeWidth=2;shape=mxgraph.networks.pc;rounded=1;shadow=0;comic=0;labelBackgroundColor=#ffffff;" parent="AWELvCN4uoLw8x4LyFVA-1" vertex="1">
          <mxGeometry x="-2063" y="289" width="100" height="70" as="geometry" />
        </mxCell>
        <mxCell id="UjjVa_3xwsOkNaraYyiL-37" value="workstation" style="fontColor=#0066CC;verticalAlign=top;verticalLabelPosition=bottom;labelPosition=center;align=center;html=1;fillColor=#CCCCCC;strokeColor=#6881B3;gradientColor=none;gradientDirection=north;strokeWidth=2;shape=mxgraph.networks.pc;rounded=1;shadow=0;comic=0;labelBackgroundColor=#ffffff;" parent="AWELvCN4uoLw8x4LyFVA-1" vertex="1">
          <mxGeometry x="-1683" y="269" width="100" height="70" as="geometry" />
        </mxCell>
        <mxCell id="UjjVa_3xwsOkNaraYyiL-40" value="" style="html=1;fillColor=#CCCCCC;strokeColor=#6881B3;gradientColor=none;gradientDirection=north;strokeWidth=2;shape=mxgraph.networks.bus;gradientColor=none;gradientDirection=north;fontColor=#ffffff;perimeter=backbonePerimeter;backboneSize=20;rounded=1;shadow=0;comic=0;labelBackgroundColor=#ffffff;" parent="AWELvCN4uoLw8x4LyFVA-1" vertex="1">
          <mxGeometry x="-1943" y="1039" width="780" height="20" as="geometry" />
        </mxCell>
        <mxCell id="UjjVa_3xwsOkNaraYyiL-41" value="" style="strokeColor=#6881B3;edgeStyle=none;rounded=0;endArrow=none;html=1;strokeWidth=2;labelBackgroundColor=none;fontFamily=Verdana;fontSize=28;fontColor=#0066CC;entryX=0.5;entryY=0;entryPerimeter=0;shadow=0;" parent="AWELvCN4uoLw8x4LyFVA-1" source="UjjVa_3xwsOkNaraYyiL-40" target="UjjVa_3xwsOkNaraYyiL-42" edge="1">
          <mxGeometry relative="1" as="geometry">
            <mxPoint x="-1863" y="1076" as="sourcePoint" />
            <mxPoint x="-1863" y="1202.8571428571431" as="targetPoint" />
          </mxGeometry>
        </mxCell>
        <mxCell id="UjjVa_3xwsOkNaraYyiL-42" value="server" style="fontColor=#0066CC;verticalAlign=top;verticalLabelPosition=bottom;labelPosition=center;align=center;html=1;fillColor=#CCCCCC;strokeColor=#6881B3;gradientColor=none;gradientDirection=north;strokeWidth=2;shape=mxgraph.networks.server;rounded=1;shadow=0;comic=0;labelBackgroundColor=#ffffff;" parent="AWELvCN4uoLw8x4LyFVA-1" vertex="1">
          <mxGeometry x="-1318" y="1149" width="90" height="100" as="geometry" />
        </mxCell>
        <mxCell id="UjjVa_3xwsOkNaraYyiL-43" style="edgeStyle=none;html=1;labelBackgroundColor=none;endArrow=none;strokeWidth=2;fontFamily=Verdana;fontSize=28;fontColor=#0066CC;rounded=0;strokeColor=#6881B3;shadow=0;" parent="AWELvCN4uoLw8x4LyFVA-1" source="UjjVa_3xwsOkNaraYyiL-50" target="UjjVa_3xwsOkNaraYyiL-51" edge="1">
          <mxGeometry relative="1" as="geometry" />
        </mxCell>
        <mxCell id="UjjVa_3xwsOkNaraYyiL-45" style="edgeStyle=none;html=1;labelBackgroundColor=none;endArrow=none;strokeWidth=2;fontFamily=Verdana;fontSize=28;fontColor=#0066CC;rounded=0;strokeColor=#6881B3;shadow=0;" parent="AWELvCN4uoLw8x4LyFVA-1" source="UjjVa_3xwsOkNaraYyiL-50" target="UjjVa_3xwsOkNaraYyiL-53" edge="1">
          <mxGeometry relative="1" as="geometry" />
        </mxCell>
        <mxCell id="UjjVa_3xwsOkNaraYyiL-46" style="edgeStyle=none;html=1;labelBackgroundColor=none;endArrow=none;strokeWidth=2;fontFamily=Verdana;fontSize=28;fontColor=#0066CC;rounded=0;strokeColor=#6881B3;shadow=0;" parent="AWELvCN4uoLw8x4LyFVA-1" source="UjjVa_3xwsOkNaraYyiL-50" target="UjjVa_3xwsOkNaraYyiL-56" edge="1">
          <mxGeometry relative="1" as="geometry" />
        </mxCell>
        <mxCell id="UjjVa_3xwsOkNaraYyiL-48" style="edgeStyle=none;html=1;labelBackgroundColor=none;endArrow=none;strokeWidth=2;fontFamily=Verdana;fontSize=28;fontColor=#0066CC;rounded=0;strokeColor=#6881B3;shadow=0;" parent="AWELvCN4uoLw8x4LyFVA-1" source="UjjVa_3xwsOkNaraYyiL-50" target="UjjVa_3xwsOkNaraYyiL-54" edge="1">
          <mxGeometry relative="1" as="geometry" />
        </mxCell>
        <mxCell id="UjjVa_3xwsOkNaraYyiL-49" style="edgeStyle=none;html=1;labelBackgroundColor=none;endArrow=none;strokeWidth=2;fontFamily=Verdana;fontSize=28;fontColor=#0066CC;rounded=0;strokeColor=#6881B3;shadow=0;" parent="AWELvCN4uoLw8x4LyFVA-1" source="UjjVa_3xwsOkNaraYyiL-50" target="UjjVa_3xwsOkNaraYyiL-42" edge="1">
          <mxGeometry relative="1" as="geometry" />
        </mxCell>
        <mxCell id="UjjVa_3xwsOkNaraYyiL-50" value="switch" style="fontColor=#0066CC;verticalAlign=top;verticalLabelPosition=bottom;labelPosition=center;align=center;html=1;fillColor=#CCCCCC;strokeColor=#6881B3;gradientColor=none;gradientDirection=north;strokeWidth=2;shape=mxgraph.networks.switch;rounded=1;shadow=0;comic=0;labelBackgroundColor=#ffffff;" parent="AWELvCN4uoLw8x4LyFVA-1" vertex="1">
          <mxGeometry x="-1324" y="1442" width="100" height="30" as="geometry" />
        </mxCell>
        <mxCell id="UjjVa_3xwsOkNaraYyiL-51" value="workstation" style="fontColor=#0066CC;verticalAlign=top;verticalLabelPosition=bottom;labelPosition=center;align=center;html=1;fillColor=#CCCCCC;strokeColor=#6881B3;gradientColor=none;gradientDirection=north;strokeWidth=2;shape=mxgraph.networks.pc;rounded=1;shadow=0;comic=0;labelBackgroundColor=#ffffff;" parent="AWELvCN4uoLw8x4LyFVA-1" vertex="1">
          <mxGeometry x="-1535" y="1302" width="100" height="70" as="geometry" />
        </mxCell>
        <mxCell id="UjjVa_3xwsOkNaraYyiL-53" value="workstation" style="fontColor=#0066CC;verticalAlign=top;verticalLabelPosition=bottom;labelPosition=center;align=center;html=1;fillColor=#CCCCCC;strokeColor=#6881B3;gradientColor=none;gradientDirection=north;strokeWidth=2;shape=mxgraph.networks.pc;rounded=1;shadow=0;comic=0;labelBackgroundColor=#ffffff;" parent="AWELvCN4uoLw8x4LyFVA-1" vertex="1">
          <mxGeometry x="-1155" y="1302" width="100" height="70" as="geometry" />
        </mxCell>
        <mxCell id="UjjVa_3xwsOkNaraYyiL-54" value="workstation" style="fontColor=#0066CC;verticalAlign=top;verticalLabelPosition=bottom;labelPosition=center;align=center;html=1;fillColor=#CCCCCC;strokeColor=#6881B3;gradientColor=none;gradientDirection=north;strokeWidth=2;shape=mxgraph.networks.pc;rounded=1;shadow=0;comic=0;labelBackgroundColor=#ffffff;" parent="AWELvCN4uoLw8x4LyFVA-1" vertex="1">
          <mxGeometry x="-1535" y="1532" width="100" height="70" as="geometry" />
        </mxCell>
        <mxCell id="UjjVa_3xwsOkNaraYyiL-56" value="workstation" style="fontColor=#0066CC;verticalAlign=top;verticalLabelPosition=bottom;labelPosition=center;align=center;html=1;fillColor=#CCCCCC;strokeColor=#6881B3;gradientColor=none;gradientDirection=north;strokeWidth=2;shape=mxgraph.networks.pc;rounded=1;shadow=0;comic=0;labelBackgroundColor=#ffffff;" parent="AWELvCN4uoLw8x4LyFVA-1" vertex="1">
          <mxGeometry x="-1155" y="1512" width="100" height="70" as="geometry" />
        </mxCell>
        <mxCell id="UjjVa_3xwsOkNaraYyiL-59" value="server" style="fontColor=#0066CC;verticalAlign=top;verticalLabelPosition=bottom;labelPosition=center;align=center;html=1;fillColor=#CCCCCC;strokeColor=#6881B3;gradientColor=none;gradientDirection=north;strokeWidth=2;shape=mxgraph.networks.server;rounded=1;shadow=0;comic=0;labelBackgroundColor=#ffffff;" parent="AWELvCN4uoLw8x4LyFVA-1" vertex="1">
          <mxGeometry x="-1866" y="1159" width="90" height="100" as="geometry" />
        </mxCell>
        <mxCell id="UjjVa_3xwsOkNaraYyiL-60" style="edgeStyle=none;html=1;labelBackgroundColor=none;endArrow=none;strokeWidth=2;fontFamily=Verdana;fontSize=28;fontColor=#0066CC;rounded=0;strokeColor=#6881B3;shadow=0;" parent="AWELvCN4uoLw8x4LyFVA-1" source="UjjVa_3xwsOkNaraYyiL-67" target="UjjVa_3xwsOkNaraYyiL-68" edge="1">
          <mxGeometry relative="1" as="geometry" />
        </mxCell>
        <mxCell id="UjjVa_3xwsOkNaraYyiL-62" style="edgeStyle=none;html=1;labelBackgroundColor=none;endArrow=none;strokeWidth=2;fontFamily=Verdana;fontSize=28;fontColor=#0066CC;rounded=0;strokeColor=#6881B3;shadow=0;" parent="AWELvCN4uoLw8x4LyFVA-1" source="UjjVa_3xwsOkNaraYyiL-67" target="UjjVa_3xwsOkNaraYyiL-70" edge="1">
          <mxGeometry relative="1" as="geometry" />
        </mxCell>
        <mxCell id="UjjVa_3xwsOkNaraYyiL-63" style="edgeStyle=none;html=1;labelBackgroundColor=none;endArrow=none;strokeWidth=2;fontFamily=Verdana;fontSize=28;fontColor=#0066CC;rounded=0;strokeColor=#6881B3;shadow=0;" parent="AWELvCN4uoLw8x4LyFVA-1" source="UjjVa_3xwsOkNaraYyiL-67" target="UjjVa_3xwsOkNaraYyiL-73" edge="1">
          <mxGeometry relative="1" as="geometry" />
        </mxCell>
        <mxCell id="UjjVa_3xwsOkNaraYyiL-65" style="edgeStyle=none;html=1;labelBackgroundColor=none;endArrow=none;strokeWidth=2;fontFamily=Verdana;fontSize=28;fontColor=#0066CC;rounded=0;strokeColor=#6881B3;shadow=0;" parent="AWELvCN4uoLw8x4LyFVA-1" source="UjjVa_3xwsOkNaraYyiL-67" target="UjjVa_3xwsOkNaraYyiL-71" edge="1">
          <mxGeometry relative="1" as="geometry" />
        </mxCell>
        <mxCell id="UjjVa_3xwsOkNaraYyiL-66" style="edgeStyle=none;html=1;labelBackgroundColor=none;endArrow=none;strokeWidth=2;fontFamily=Verdana;fontSize=28;fontColor=#0066CC;rounded=0;strokeColor=#6881B3;shadow=0;" parent="AWELvCN4uoLw8x4LyFVA-1" source="UjjVa_3xwsOkNaraYyiL-67" target="UjjVa_3xwsOkNaraYyiL-59" edge="1">
          <mxGeometry relative="1" as="geometry" />
        </mxCell>
        <mxCell id="UjjVa_3xwsOkNaraYyiL-67" value="switch" style="fontColor=#0066CC;verticalAlign=top;verticalLabelPosition=bottom;labelPosition=center;align=center;html=1;fillColor=#CCCCCC;strokeColor=#6881B3;gradientColor=none;gradientDirection=north;strokeWidth=2;shape=mxgraph.networks.switch;rounded=1;shadow=0;comic=0;labelBackgroundColor=#ffffff;" parent="AWELvCN4uoLw8x4LyFVA-1" vertex="1">
          <mxGeometry x="-1872" y="1452" width="100" height="30" as="geometry" />
        </mxCell>
        <mxCell id="UjjVa_3xwsOkNaraYyiL-68" value="workstation" style="fontColor=#0066CC;verticalAlign=top;verticalLabelPosition=bottom;labelPosition=center;align=center;html=1;fillColor=#CCCCCC;strokeColor=#6881B3;gradientColor=none;gradientDirection=north;strokeWidth=2;shape=mxgraph.networks.pc;rounded=1;shadow=0;comic=0;labelBackgroundColor=#ffffff;" parent="AWELvCN4uoLw8x4LyFVA-1" vertex="1">
          <mxGeometry x="-2083" y="1312" width="100" height="70" as="geometry" />
        </mxCell>
        <mxCell id="UjjVa_3xwsOkNaraYyiL-70" value="workstation" style="fontColor=#0066CC;verticalAlign=top;verticalLabelPosition=bottom;labelPosition=center;align=center;html=1;fillColor=#CCCCCC;strokeColor=#6881B3;gradientColor=none;gradientDirection=north;strokeWidth=2;shape=mxgraph.networks.pc;rounded=1;shadow=0;comic=0;labelBackgroundColor=#ffffff;" parent="AWELvCN4uoLw8x4LyFVA-1" vertex="1">
          <mxGeometry x="-1703" y="1312" width="100" height="70" as="geometry" />
        </mxCell>
        <mxCell id="UjjVa_3xwsOkNaraYyiL-71" value="workstation" style="fontColor=#0066CC;verticalAlign=top;verticalLabelPosition=bottom;labelPosition=center;align=center;html=1;fillColor=#CCCCCC;strokeColor=#6881B3;gradientColor=none;gradientDirection=north;strokeWidth=2;shape=mxgraph.networks.pc;rounded=1;shadow=0;comic=0;labelBackgroundColor=#ffffff;" parent="AWELvCN4uoLw8x4LyFVA-1" vertex="1">
          <mxGeometry x="-2083" y="1542" width="100" height="70" as="geometry" />
        </mxCell>
        <mxCell id="UjjVa_3xwsOkNaraYyiL-73" value="workstation" style="fontColor=#0066CC;verticalAlign=top;verticalLabelPosition=bottom;labelPosition=center;align=center;html=1;fillColor=#CCCCCC;strokeColor=#6881B3;gradientColor=none;gradientDirection=north;strokeWidth=2;shape=mxgraph.networks.pc;rounded=1;shadow=0;comic=0;labelBackgroundColor=#ffffff;" parent="AWELvCN4uoLw8x4LyFVA-1" vertex="1">
          <mxGeometry x="-1703" y="1522" width="100" height="70" as="geometry" />
        </mxCell>
        <mxCell id="UjjVa_3xwsOkNaraYyiL-76" value="" style="strokeColor=#6881B3;edgeStyle=none;rounded=0;endArrow=none;html=1;strokeWidth=2;labelBackgroundColor=none;fontFamily=Verdana;fontSize=28;fontColor=#0066CC;entryX=0.5;entryY=0;entryPerimeter=0;shadow=0;" parent="AWELvCN4uoLw8x4LyFVA-1" source="UjjVa_3xwsOkNaraYyiL-40" target="UjjVa_3xwsOkNaraYyiL-59" edge="1">
          <mxGeometry relative="1" as="geometry">
            <mxPoint x="-1263.333333333333" y="1066.6666666666665" as="sourcePoint" />
            <mxPoint x="-1263.333333333333" y="1158.666666666667" as="targetPoint" />
          </mxGeometry>
        </mxCell>
        <mxCell id="MbLy8XGlAcTO7E9DR1fT-0" value="Text" style="text;html=1;align=center;verticalAlign=middle;resizable=0;points=[];autosize=1;strokeColor=none;fillColor=none;shadow=0;" parent="AWELvCN4uoLw8x4LyFVA-1" vertex="1">
          <mxGeometry x="-1540" y="790" width="40" height="20" as="geometry" />
        </mxCell>
        <mxCell id="MbLy8XGlAcTO7E9DR1fT-10" value="" style="edgeStyle=orthogonalEdgeStyle;rounded=0;orthogonalLoop=1;jettySize=auto;html=1;shadow=0;" parent="AWELvCN4uoLw8x4LyFVA-1" source="MbLy8XGlAcTO7E9DR1fT-9" target="UjjVa_3xwsOkNaraYyiL-3" edge="1">
          <mxGeometry relative="1" as="geometry" />
        </mxCell>
        <mxCell id="MbLy8XGlAcTO7E9DR1fT-9" value="vlan(172.22.0.0/16)" style="text;html=1;align=center;verticalAlign=middle;resizable=0;points=[];autosize=1;strokeColor=none;fillColor=none;shadow=0;" parent="AWELvCN4uoLw8x4LyFVA-1" vertex="1">
          <mxGeometry x="-1654" y="540" width="120" height="20" as="geometry" />
        </mxCell>
        <mxCell id="MbLy8XGlAcTO7E9DR1fT-11" value="vlan(172.30.0.0/16)" style="text;html=1;align=center;verticalAlign=middle;resizable=0;points=[];autosize=1;strokeColor=none;fillColor=none;shadow=0;" parent="AWELvCN4uoLw8x4LyFVA-1" vertex="1">
          <mxGeometry x="-1650" y="1070" width="120" height="20" as="geometry" />
        </mxCell>
        <mxCell id="MbLy8XGlAcTO7E9DR1fT-12" value="外网&lt;span style=&quot;color: rgba(0 , 0 , 0 , 0.9) ; font-family: &amp;#34;roboto&amp;#34; , &amp;#34;san francisco&amp;#34; , &amp;#34;helvetica neue&amp;#34; , &amp;#34;helvetica&amp;#34; , &amp;#34;arial&amp;#34; , , &amp;#34;hiragina sans gb&amp;#34; , &amp;#34;wenquanyi micro hei&amp;#34; , &amp;#34;microsoft yahei ui&amp;#34; , &amp;#34;microsoft yahei&amp;#34; , sans-serif ; font-size: 12px ; font-weight: 400 ; text-align: left ; background-color: rgb(235 , 238 , 242)&quot;&gt;172.30.2.11&lt;/span&gt;&lt;br&gt;loadbanlance" style="sketch=0;outlineConnect=0;fontColor=#232F3E;gradientColor=none;strokeColor=#ffffff;fillColor=#232F3E;dashed=0;verticalLabelPosition=middle;verticalAlign=bottom;align=center;html=1;whiteSpace=wrap;fontSize=10;fontStyle=1;spacing=3;shape=mxgraph.aws4.productIcon;prIcon=mxgraph.aws4.application_load_balancer;shadow=0;" parent="AWELvCN4uoLw8x4LyFVA-1" vertex="1">
          <mxGeometry x="-1299" y="790" width="80" height="130" as="geometry" />
        </mxCell>
        <mxCell id="1L2xUBonpa3PYeN3Bkl6-0" value="" style="aspect=fixed;perimeter=ellipsePerimeter;html=1;align=center;shadow=0;dashed=0;spacingTop=3;image;image=img/lib/active_directory/internet_cloud.svg;" parent="AWELvCN4uoLw8x4LyFVA-1" vertex="1">
          <mxGeometry x="-1055" y="810" width="80" height="50.4" as="geometry" />
        </mxCell>
        <mxCell id="3flCOvro_a3GAqW56sdj-0" value="Application Load Balancer" style="sketch=0;outlineConnect=0;fontColor=#232F3E;gradientColor=none;strokeColor=#ffffff;fillColor=#232F3E;dashed=0;verticalLabelPosition=middle;verticalAlign=bottom;align=center;html=1;whiteSpace=wrap;fontSize=10;fontStyle=1;spacing=3;shape=mxgraph.aws4.productIcon;prIcon=mxgraph.aws4.application_load_balancer;shadow=0;" vertex="1" parent="AWELvCN4uoLw8x4LyFVA-1">
          <mxGeometry x="-1573" y="790" width="80" height="110" as="geometry" />
        </mxCell>
        <mxCell id="3flCOvro_a3GAqW56sdj-4" style="edgeStyle=none;html=1;labelBackgroundColor=none;endArrow=none;strokeWidth=2;fontFamily=Verdana;fontSize=28;fontColor=#0066CC;rounded=0;strokeColor=#6881B3;shadow=0;" edge="1" parent="AWELvCN4uoLw8x4LyFVA-1">
          <mxGeometry relative="1" as="geometry">
            <mxPoint x="-1224" y="840.9200000000001" as="sourcePoint" />
            <mxPoint x="-1050" y="841" as="targetPoint" />
          </mxGeometry>
        </mxCell>
        <mxCell id="3flCOvro_a3GAqW56sdj-6" style="edgeStyle=none;html=1;labelBackgroundColor=none;endArrow=none;strokeWidth=2;fontFamily=Verdana;fontSize=28;fontColor=#0066CC;rounded=0;strokeColor=#6881B3;shadow=0;" edge="1" parent="AWELvCN4uoLw8x4LyFVA-1">
          <mxGeometry relative="1" as="geometry">
            <mxPoint x="-1480" y="834.4900000000001" as="sourcePoint" />
            <mxPoint x="-1306.0000000000005" y="834.5700000000003" as="targetPoint" />
          </mxGeometry>
        </mxCell>
      </root>
    </mxGraphModel>
  </diagram>
  <diagram id="zDw7KaptVyqr9fRs5_55" name="Page-3">
    <mxGraphModel dx="1422" dy="762" grid="1" gridSize="10" guides="1" tooltips="1" connect="1" arrows="1" fold="1" page="1" pageScale="1" pageWidth="827" pageHeight="1169" math="0" shadow="0">
      <root>
        <mxCell id="ko4EHN0QIzTPBriMpw4c-0" />
        <mxCell id="ko4EHN0QIzTPBriMpw4c-1" parent="ko4EHN0QIzTPBriMpw4c-0" />
      </root>
    </mxGraphModel>
  </diagram>
</mxfile>
